# xmcd CD database file
#
# Track frame offsets:
#	150
#	18697
#	39740
#	58287
#
# Disc length: 1054 seconds
#
# Revision: 3
# Processed by: cddbd v1.5.2PL0 Copyright (c) Steve Scherf et al.
# Submitted via: CDex 1.70beta2
#
DISCID=36041c04
DTITLE=白石涼子、eufonius - 太陽のかけら／ぐるぐる～himawari version～
DYEAR=2006
DGENRE=Vocal
TTITLE0=白石涼子 - 太陽のかけら
TTITLE1=eufonius - ぐるぐる～himawari version～
TTITLE2=白石涼子 - 太陽のかけら (off vocal ver.)
TTITLE3=eufonius - ぐるぐる～himawari version～ (off vocal ver.)
EXTD=YEAR: 2006
EXTT0=
EXTT1=
EXTT2=
EXTT3=
PLAYORDER=
